<mxfile host="app.diagrams.net" agent="Mozilla/5.0 (Windows NT 10.0; Win64; x64) AppleWebKit/537.36 (KHTML, like Gecko) Chrome/138.0.0.0 Safari/537.36" version="27.2.0">
  <diagram name="Trang-1" id="jhC_7ZTlEoyAH7szpJp1">
    <mxGraphModel dx="758" dy="382" grid="1" gridSize="10" guides="1" tooltips="1" connect="1" arrows="1" fold="1" page="1" pageScale="1" pageWidth="827" pageHeight="1169" math="0" shadow="0">
      <root>
        <mxCell id="0" />
        <mxCell id="1" parent="0" />
        <mxCell id="dr523ObDgHRPeoAaerhO-1" value="&lt;h1 style=&quot;margin-top: 0px;&quot;&gt;&lt;span style=&quot;background-color: transparent; color: light-dark(rgb(0, 0, 0), rgb(255, 255, 255));&quot;&gt;Pseudo-code&lt;/span&gt;&lt;/h1&gt;&lt;h1 style=&quot;margin-top: 0px;&quot;&gt;&lt;span style=&quot;font-size: 12px; font-weight: 400;&quot;&gt;Begin&lt;/span&gt;&lt;/h1&gt;&lt;div&gt;&lt;span style=&quot;font-size: 12px; font-weight: 400;&quot;&gt;Input (N)&lt;/span&gt;&lt;/div&gt;&lt;div&gt;&lt;span style=&quot;font-size: 12px; font-weight: 400;&quot;&gt;Input(a&lt;sub&gt;1&lt;/sub&gt;, a&lt;sub&gt;2&lt;/sub&gt;, a&lt;sub&gt;3&lt;/sub&gt;... a&lt;sub&gt;i&lt;/sub&gt;; i&amp;lt;=N)&lt;/span&gt;&lt;/div&gt;&lt;div&gt;&lt;span style=&quot;font-size: 12px; font-weight: 400;&quot;&gt;max =&amp;nbsp; a&lt;sub&gt;1&lt;/sub&gt;&lt;/span&gt;&lt;/div&gt;&lt;div&gt;For i=2 to i=N&lt;/div&gt;&lt;div&gt;&lt;span style=&quot;white-space: pre;&quot;&gt;&#x9;&lt;/span&gt;if a&lt;sub&gt;i&lt;/sub&gt;&amp;gt;max then&lt;/div&gt;&lt;div&gt;&lt;span style=&quot;white-space: pre;&quot;&gt;&#x9;&lt;/span&gt;&lt;span style=&quot;white-space: pre;&quot;&gt;&#x9;&lt;/span&gt;max = a&lt;sub&gt;i&lt;/sub&gt;&lt;/div&gt;&lt;div&gt;&lt;span style=&quot;white-space: pre;&quot;&gt;&#x9;&lt;/span&gt;end if&lt;/div&gt;&lt;div&gt;Next i&lt;/div&gt;&lt;div&gt;Output Max (Số lớn nhất)&lt;/div&gt;&lt;div&gt;&lt;br&gt;&lt;/div&gt;&lt;div&gt;End&lt;/div&gt;&lt;div&gt;&lt;br&gt;&lt;/div&gt;" style="text;html=1;whiteSpace=wrap;overflow=hidden;rounded=0;" parent="1" vertex="1">
          <mxGeometry x="30" y="20" width="180" height="290" as="geometry" />
        </mxCell>
        <mxCell id="dr523ObDgHRPeoAaerhO-2" value="&lt;b&gt;&lt;font style=&quot;font-size: 24px;&quot;&gt;Flow-chart&lt;/font&gt;&lt;/b&gt;" style="text;html=1;align=center;verticalAlign=middle;whiteSpace=wrap;rounded=0;" parent="1" vertex="1">
          <mxGeometry x="319" y="20" width="190" height="30" as="geometry" />
        </mxCell>
        <mxCell id="Hfhnq50Lut_s0Cq94pIa-5" value="" style="edgeStyle=orthogonalEdgeStyle;rounded=0;orthogonalLoop=1;jettySize=auto;html=1;" parent="1" source="Hfhnq50Lut_s0Cq94pIa-1" target="Hfhnq50Lut_s0Cq94pIa-2" edge="1">
          <mxGeometry relative="1" as="geometry" />
        </mxCell>
        <mxCell id="Hfhnq50Lut_s0Cq94pIa-1" value="Begin" style="ellipse;whiteSpace=wrap;html=1;" parent="1" vertex="1">
          <mxGeometry x="354" y="80" width="120" height="80" as="geometry" />
        </mxCell>
        <mxCell id="OrFioPvDHBszfCDKCoK6-34" value="" style="edgeStyle=orthogonalEdgeStyle;rounded=0;orthogonalLoop=1;jettySize=auto;html=1;" edge="1" parent="1" source="Hfhnq50Lut_s0Cq94pIa-2" target="OrFioPvDHBszfCDKCoK6-1">
          <mxGeometry relative="1" as="geometry" />
        </mxCell>
        <mxCell id="Hfhnq50Lut_s0Cq94pIa-2" value="Input (N)&lt;br&gt;&lt;span style=&quot;text-align: left;&quot;&gt;Input(a&lt;/span&gt;&lt;sub style=&quot;text-align: left;&quot;&gt;1&lt;/sub&gt;&lt;span style=&quot;text-align: left;&quot;&gt;, a&lt;/span&gt;&lt;sub style=&quot;text-align: left;&quot;&gt;2&lt;/sub&gt;&lt;span style=&quot;text-align: left;&quot;&gt;, a&lt;/span&gt;&lt;sub style=&quot;text-align: left;&quot;&gt;3&lt;/sub&gt;&lt;span style=&quot;text-align: left;&quot;&gt;... a&lt;/span&gt;&lt;sub style=&quot;text-align: left;&quot;&gt;i&lt;/sub&gt;&lt;span style=&quot;text-align: left;&quot;&gt;; i&amp;lt;=N)&lt;/span&gt;" style="shape=parallelogram;perimeter=parallelogramPerimeter;whiteSpace=wrap;html=1;fixedSize=1;" parent="1" vertex="1">
          <mxGeometry x="319" y="190" width="190" height="60" as="geometry" />
        </mxCell>
        <mxCell id="Hfhnq50Lut_s0Cq94pIa-8" value="End" style="ellipse;whiteSpace=wrap;html=1;" parent="1" vertex="1">
          <mxGeometry x="354" y="700" width="120" height="80" as="geometry" />
        </mxCell>
        <mxCell id="OrFioPvDHBszfCDKCoK6-13" value="" style="edgeStyle=orthogonalEdgeStyle;rounded=0;orthogonalLoop=1;jettySize=auto;html=1;" edge="1" parent="1" source="OrFioPvDHBszfCDKCoK6-1" target="OrFioPvDHBszfCDKCoK6-8">
          <mxGeometry relative="1" as="geometry" />
        </mxCell>
        <mxCell id="OrFioPvDHBszfCDKCoK6-1" value="i=1&lt;div&gt;max = a&lt;sub&gt;1&lt;/sub&gt;&lt;/div&gt;" style="rounded=0;whiteSpace=wrap;html=1;" vertex="1" parent="1">
          <mxGeometry x="354" y="290" width="120" height="60" as="geometry" />
        </mxCell>
        <mxCell id="OrFioPvDHBszfCDKCoK6-19" value="" style="edgeStyle=orthogonalEdgeStyle;rounded=0;orthogonalLoop=1;jettySize=auto;html=1;" edge="1" parent="1" source="OrFioPvDHBszfCDKCoK6-2" target="OrFioPvDHBszfCDKCoK6-3">
          <mxGeometry relative="1" as="geometry" />
        </mxCell>
        <mxCell id="OrFioPvDHBszfCDKCoK6-2" value="For i=2 to i = N" style="rhombus;whiteSpace=wrap;html=1;" vertex="1" parent="1">
          <mxGeometry x="329" y="460" width="170" height="80" as="geometry" />
        </mxCell>
        <mxCell id="OrFioPvDHBszfCDKCoK6-18" value="" style="edgeStyle=orthogonalEdgeStyle;rounded=0;orthogonalLoop=1;jettySize=auto;html=1;" edge="1" parent="1" source="OrFioPvDHBszfCDKCoK6-3" target="OrFioPvDHBszfCDKCoK6-16">
          <mxGeometry relative="1" as="geometry" />
        </mxCell>
        <mxCell id="OrFioPvDHBszfCDKCoK6-3" value="a&lt;sub&gt;i&lt;/sub&gt;&amp;gt;max" style="rhombus;whiteSpace=wrap;html=1;" vertex="1" parent="1">
          <mxGeometry x="600" y="460" width="160" height="80" as="geometry" />
        </mxCell>
        <mxCell id="OrFioPvDHBszfCDKCoK6-15" value="" style="edgeStyle=orthogonalEdgeStyle;rounded=0;orthogonalLoop=1;jettySize=auto;html=1;" edge="1" parent="1" source="OrFioPvDHBszfCDKCoK6-6" target="OrFioPvDHBszfCDKCoK6-14">
          <mxGeometry relative="1" as="geometry" />
        </mxCell>
        <mxCell id="OrFioPvDHBszfCDKCoK6-6" value="Next i" style="rounded=0;whiteSpace=wrap;html=1;" vertex="1" parent="1">
          <mxGeometry x="850" y="400" width="120" height="40" as="geometry" />
        </mxCell>
        <mxCell id="OrFioPvDHBszfCDKCoK6-8" value="" style="shape=waypoint;sketch=0;size=6;pointerEvents=1;points=[];fillColor=default;resizable=0;rotatable=0;perimeter=centerPerimeter;snapToPoint=1;rounded=0;" vertex="1" parent="1">
          <mxGeometry x="404" y="450" width="20" height="20" as="geometry" />
        </mxCell>
        <mxCell id="OrFioPvDHBszfCDKCoK6-14" value="" style="shape=waypoint;sketch=0;size=6;pointerEvents=1;points=[];fillColor=default;resizable=0;rotatable=0;perimeter=centerPerimeter;snapToPoint=1;rounded=0;" vertex="1" parent="1">
          <mxGeometry x="404" y="410" width="20" height="20" as="geometry" />
        </mxCell>
        <mxCell id="OrFioPvDHBszfCDKCoK6-17" value="" style="edgeStyle=orthogonalEdgeStyle;rounded=0;orthogonalLoop=1;jettySize=auto;html=1;" edge="1" parent="1" source="OrFioPvDHBszfCDKCoK6-16" target="OrFioPvDHBszfCDKCoK6-6">
          <mxGeometry relative="1" as="geometry" />
        </mxCell>
        <mxCell id="OrFioPvDHBszfCDKCoK6-16" value="Max = a&lt;sub&gt;i&lt;/sub&gt;" style="rounded=0;whiteSpace=wrap;html=1;" vertex="1" parent="1">
          <mxGeometry x="850" y="470" width="120" height="60" as="geometry" />
        </mxCell>
        <mxCell id="OrFioPvDHBszfCDKCoK6-20" value="" style="endArrow=classic;html=1;rounded=0;entryX=1;entryY=0.5;entryDx=0;entryDy=0;" edge="1" parent="1" target="OrFioPvDHBszfCDKCoK6-6">
          <mxGeometry width="50" height="50" relative="1" as="geometry">
            <mxPoint x="1080" y="420" as="sourcePoint" />
            <mxPoint x="1310" y="360" as="targetPoint" />
          </mxGeometry>
        </mxCell>
        <mxCell id="OrFioPvDHBszfCDKCoK6-21" value="" style="endArrow=none;html=1;rounded=0;" edge="1" parent="1">
          <mxGeometry width="50" height="50" relative="1" as="geometry">
            <mxPoint x="680" y="600" as="sourcePoint" />
            <mxPoint x="680" y="540" as="targetPoint" />
          </mxGeometry>
        </mxCell>
        <mxCell id="OrFioPvDHBszfCDKCoK6-22" value="" style="endArrow=none;html=1;rounded=0;" edge="1" parent="1">
          <mxGeometry width="50" height="50" relative="1" as="geometry">
            <mxPoint x="680" y="600" as="sourcePoint" />
            <mxPoint x="1080" y="600" as="targetPoint" />
          </mxGeometry>
        </mxCell>
        <mxCell id="OrFioPvDHBszfCDKCoK6-23" value="" style="endArrow=none;html=1;rounded=0;" edge="1" parent="1">
          <mxGeometry width="50" height="50" relative="1" as="geometry">
            <mxPoint x="1080" y="600" as="sourcePoint" />
            <mxPoint x="1080" y="420" as="targetPoint" />
          </mxGeometry>
        </mxCell>
        <mxCell id="OrFioPvDHBszfCDKCoK6-24" value="" style="endArrow=classic;html=1;rounded=0;exitX=0.5;exitY=1;exitDx=0;exitDy=0;" edge="1" parent="1" source="OrFioPvDHBszfCDKCoK6-2">
          <mxGeometry width="50" height="50" relative="1" as="geometry">
            <mxPoint x="450" y="580" as="sourcePoint" />
            <mxPoint x="414" y="600" as="targetPoint" />
          </mxGeometry>
        </mxCell>
        <mxCell id="OrFioPvDHBszfCDKCoK6-29" value="" style="edgeStyle=orthogonalEdgeStyle;rounded=0;orthogonalLoop=1;jettySize=auto;html=1;" edge="1" parent="1" source="OrFioPvDHBszfCDKCoK6-26" target="Hfhnq50Lut_s0Cq94pIa-8">
          <mxGeometry relative="1" as="geometry" />
        </mxCell>
        <mxCell id="OrFioPvDHBszfCDKCoK6-26" value="Display Max" style="shape=parallelogram;perimeter=parallelogramPerimeter;whiteSpace=wrap;html=1;fixedSize=1;" vertex="1" parent="1">
          <mxGeometry x="354" y="600" width="120" height="60" as="geometry" />
        </mxCell>
        <mxCell id="OrFioPvDHBszfCDKCoK6-30" value="True" style="text;html=1;align=center;verticalAlign=middle;whiteSpace=wrap;rounded=0;" vertex="1" parent="1">
          <mxGeometry x="520" y="470" width="60" height="30" as="geometry" />
        </mxCell>
        <mxCell id="OrFioPvDHBszfCDKCoK6-31" value="True" style="text;html=1;align=center;verticalAlign=middle;whiteSpace=wrap;rounded=0;" vertex="1" parent="1">
          <mxGeometry x="770" y="470" width="60" height="30" as="geometry" />
        </mxCell>
        <mxCell id="OrFioPvDHBszfCDKCoK6-32" value="False" style="text;html=1;align=center;verticalAlign=middle;whiteSpace=wrap;rounded=0;" vertex="1" parent="1">
          <mxGeometry x="414" y="554.5" width="60" height="30" as="geometry" />
        </mxCell>
        <mxCell id="OrFioPvDHBszfCDKCoK6-33" value="False" style="text;html=1;align=center;verticalAlign=middle;whiteSpace=wrap;rounded=0;" vertex="1" parent="1">
          <mxGeometry x="680" y="555" width="60" height="30" as="geometry" />
        </mxCell>
      </root>
    </mxGraphModel>
  </diagram>
</mxfile>
